<?xml version="1.0" encoding="utf-8"?>
<!-- Generator: Adobe Illustrator 15.1.0, SVG Export Plug-In . SVG Version: 6.00 Build 0)  -->
<!DOCTYPE svg PUBLIC "-//W3C//DTD SVG 1.1//EN" "http://www.w3.org/Graphics/SVG/1.1/DTD/svg11.dtd">
<svg version="1.1" id="Layer_1" xmlns="http://www.w3.org/2000/svg" xmlns:xlink="http://www.w3.org/1999/xlink" x="0px" y="0px"
	 width="850.391px" height="418.58px" viewBox="0 0 850.391 418.58" enable-background="new 0 0 850.391 418.58"
	 xml:space="preserve">
<path fill="#FFFFFF" d="M384.345,30.272c-48.015,0-81.547,35.343-81.547,85.944c0,25.545,7.834,51.09,26.438,68.529
	c18.461,17.308,41.719,23.859,63.685,23.859c26.499,0,49.312-8.842,58.354-15.449c4.706-3.436,13.043-11.662,11.113-22.508
	c-1.631-9.202-9.646-17.232-12.275-19.866l-1.964-2.01l-1.326,1.577c-4.228,5.029-17.099,20.324-42.896,20.324
	c-29.351,0-48.321-16.963-48.321-43.21c0-1.146,0.911-2.055,2.027-2.055h107.217c1.136,0,2.062-0.911,2.109-2.064
	c0.069-1.777,0.105-3.533,0.105-5.283c0-25.474-7.833-47.269-22.648-63.031C429.424,39.071,408.097,30.272,384.345,30.272
	 M416.715,94.864H358.72c-0.595,0-1.163-0.28-1.551-0.75c-0.39-0.468-0.54-1.091-0.435-1.684c3.2-17.893,14.494-28.15,30.988-28.15
	c16.153,0,27.726,10.519,30.962,28.139c0.116,0.596-0.047,1.219-0.423,1.695C417.885,94.594,417.317,94.864,416.715,94.864"/>
<path fill="#FFFFFF" d="M605.295,57.943c0,8.987-5.896,18.172-10.446,25.581c-9.833-7.813-22.311-13.24-34.56-15.962
	c-10.066-2.236-33.387-4.291-34.791,9.176c-0.575,5.58,3.288,10.159,10.971,13.296c12.065,4.903,26.671,10.463,38.854,15.223
	c11.338,4.444,21.335,11.79,27.35,22.499c5.958,10.636,6.254,24.599,3.529,36.227c-5.991,25.534-30.132,39.579-54.827,42.75
	c-18.263,2.354-38.856,0.91-55.955-6.281c-7.646-3.219-17.021-7.949-17.435-17.412c-0.396-8.926,4.866-20.443,8.914-27.017
	c9.004,6.771,24.689,11.746,36.649,13.864c12.147,2.161,29.042,2.928,34.937-5.698c4.859-7.094-0.135-13.771-9.419-18.243
	c-11.421-5.488-29.268-12.114-37.054-15.827c-11.114-5.31-19.326-8.716-26.384-19.101c-6.854-10.084-8.707-23.146-6.521-35.008
	c4.726-25.555,31.286-38.605,54.976-41.272c14.609-1.641,30.033-0.532,44.237,3.245C588.188,40.595,604.43,45.649,605.295,57.943
	C605.295,61.396,604.817,51.265,605.295,57.943"/>
<path fill="#FFFFFF" d="M741.615,57.943c0,8.987-5.879,18.172-10.43,25.581c-9.842-7.813-22.31-13.24-34.576-15.962
	c-10.06-2.236-33.386-4.291-34.771,9.176c-0.586,5.58,3.271,10.159,10.961,13.296c12.077,4.903,26.681,10.463,38.854,15.223
	c11.35,4.444,21.345,11.79,27.349,22.499c5.968,10.636,6.267,24.599,3.53,36.227c-5.981,25.534-30.132,39.579-54.817,42.75
	c-18.271,2.354-38.852,0.91-55.967-6.281c-7.635-3.219-17.023-7.949-17.438-17.412c-0.388-8.926,4.876-20.443,8.924-27.017
	c9.014,6.771,24.697,11.746,36.658,13.864c12.141,2.161,29.032,2.928,34.928-5.698c4.856-7.094-0.136-13.771-9.42-18.243
	c-11.42-5.488-29.269-12.114-37.055-15.827c-11.124-5.31-19.334-8.716-26.395-19.101c-6.852-10.084-8.715-23.146-6.522-35.008
	c4.729-25.555,31.284-38.605,54.991-41.272c14.602-1.641,30.021-0.532,44.229,3.245C724.517,40.595,740.761,45.649,741.615,57.943
	C741.615,61.396,741.147,51.265,741.615,57.943"/>
<path fill="#FFFFFF" d="M81.435,33.292v143.145c0,5.605,0.821,10.191,2.435,13.646c1.568,3.399,3.77,6.121,6.525,8.104
	c2.793,2.024,6.246,3.442,10.239,4.219c4.228,0.81,9.086,1.218,14.421,1.218c4.264,0,6.346-0.117,10.25-0.359
	c2.189-0.137,3.658-0.309,4.641-0.441V58.133c0-5.488-0.981-9.925-2.909-13.215c-1.967-3.316-4.473-5.821-7.646-7.642
	c-3.28-1.866-7.002-3.156-11.06-3.823c-8.618-1.396-15.404-1.216-23.427-0.513C83.348,33.085,82.237,33.193,81.435,33.292"/>
<path fill="#FFFFFF" d="M301.943,67.841l-54.126,134.032h-47.024l-66.78-169.059h23.796c7.426,0,12.979,1.316,16.604,2.658
	c4.372,1.613,8.707,4.228,12.457,7.752c7.176,6.75,9.744,16.439,11.735,21.938l25.399,74.091l36.874-106.44h19.569
	C307.774,32.814,306.072,55.826,301.943,67.841"/>
<g>
	<g>
		<g>
			<g>
				<g>
					<defs>
						<path id="SVGID_1_" d="M422.363,275.062c228.691-32.396,368.23-5.381,400.476,31.528c0,0-44.823-160.326-401.81-94.938
							c-228.683,32.385-368.229,5.381-400.472-31.529C20.558,180.123,65.392,340.447,422.363,275.062"/>
					</defs>
					<clipPath id="SVGID_2_">
						<use xlink:href="#SVGID_1_"  overflow="visible"/>
					</clipPath>
					
						<linearGradient id="SVGID_3_" gradientUnits="userSpaceOnUse" x1="530.3518" y1="170.158" x2="531.4954" y2="170.158" gradientTransform="matrix(701.1372 28.8875 0 -701.1372 -371825.0312 104210.5469)">
						<stop  offset="0" style="stop-color:#2BACE2"/>
						<stop  offset="0.1568" style="stop-color:#1DBFF0"/>
						<stop  offset="0.4946" style="stop-color:#A0DDF9"/>
						<stop  offset="1" style="stop-color:#2BACE2"/>
					</linearGradient>
					<polygon clip-path="url(#SVGID_2_)" fill="url(#SVGID_3_)" points="20.558,113.224 822.838,146.277 822.838,373.51 
						20.558,340.447 					"/>
				</g>
			</g>
		</g>
	</g>
</g>
<path fill="#FFFFFF" d="M63.264,172.037c0.767,0,1.405,0.127,1.92,0.39c0.522,0.262,0.92,0.618,1.208,1.116
	c0.309,0.479,0.522,1.056,0.642,1.74c0.127,0.685,0.18,1.449,0.18,2.289v3.561H53.484c-0.054-0.559-0.101-1.092-0.145-1.604
	c-0.026-0.506-0.045-1.092-0.045-1.739c0-0.955,0.072-1.748,0.226-2.396c0.153-0.658,0.37-1.189,0.659-1.588
	c0.278-0.396,0.64-0.678,1.07-0.863c0.442-0.182,0.931-0.271,1.479-0.271c0.479,0,0.911,0.072,1.271,0.207
	c0.359,0.138,0.667,0.31,0.938,0.504c0.271,0.21,0.468,0.416,0.64,0.65c0.161,0.232,0.279,0.439,0.369,0.639
	c0.055-0.227,0.144-0.493,0.271-0.793c0.137-0.313,0.325-0.604,0.568-0.875c0.243-0.26,0.567-0.493,0.964-0.686
	C62.156,172.127,62.66,172.037,63.264,172.037 M56.792,174.463c-0.424,0-0.768,0.08-1.036,0.263
	c-0.271,0.172-0.479,0.403-0.623,0.713c-0.145,0.297-0.243,0.656-0.298,1.072c-0.053,0.424-0.081,0.885-0.081,1.368
	c0,0.334,0.009,0.621,0.02,0.865c0.009,0.242,0.035,0.441,0.062,0.594h4.534v-1.955c0-0.848-0.217-1.551-0.676-2.106
	C58.252,174.74,57.621,174.463,56.792,174.463 M65.717,178.041c0-0.61-0.027-1.172-0.092-1.688
	c-0.054-0.504-0.161-0.943-0.341-1.314c-0.173-0.371-0.415-0.658-0.74-0.875c-0.333-0.207-0.767-0.305-1.316-0.305
	c-0.478,0-0.873,0.098-1.181,0.287c-0.307,0.197-0.55,0.449-0.738,0.773c-0.181,0.334-0.314,0.703-0.379,1.125
	c-0.062,0.428-0.101,0.856-0.101,1.315v1.976h4.887L65.717,178.041L65.717,178.041z"/>
<path fill="#FFFFFF" d="M67.211,158.97l-3.693,1.367v5.57l3.693,1.334v1.84l-13.646-5.004c-0.036-0.099-0.081-0.231-0.117-0.432
	c-0.035-0.189-0.062-0.39-0.062-0.568c0-0.262,0.056-0.504,0.172-0.713c0.118-0.215,0.344-0.387,0.667-0.514l12.987-4.761V158.97
	L67.211,158.97z M55.478,163.133l6.569,2.326v-4.635L55.478,163.133z"/>
<path fill="#FFFFFF" d="M65.796,151.586c0.288,0,0.578,0,0.884,0.02c0.307,0.019,0.613,0.037,0.938,0.062
	c0.396,0.037,0.793,0.139,1.18,0.281c0.389,0.133,0.739,0.342,1.046,0.611c0.316,0.27,0.568,0.604,0.758,1
	c0.198,0.397,0.288,0.875,0.288,1.416c0,0.44-0.098,0.729-0.288,0.883c-0.188,0.145-0.434,0.207-0.721,0.207h-0.252
	c-0.091,0-0.181-0.008-0.244-0.017c0-0.991-0.189-1.694-0.595-2.084c-0.396-0.387-1.062-0.596-2.001-0.596H53.439
	c-0.026-0.062-0.044-0.144-0.056-0.242c0-0.101-0.018-0.181-0.018-0.244c0-0.127,0.018-0.26,0.045-0.413
	c0.026-0.146,0.091-0.289,0.18-0.425c0.101-0.125,0.235-0.241,0.388-0.334c0.164-0.08,0.379-0.127,0.641-0.127h11.178V151.586z"/>
<path fill="#FFFFFF" d="M60.253,135.308c0.991,0,1.918,0.115,2.803,0.343c0.875,0.224,1.649,0.585,2.31,1.062
	c0.647,0.478,1.18,1.108,1.577,1.866c0.396,0.756,0.576,1.676,0.576,2.748c0,1.056-0.188,1.957-0.596,2.704
	c-0.396,0.75-0.938,1.362-1.595,1.822c-0.667,0.468-1.441,0.8-2.316,1.01c-0.885,0.216-1.795,0.325-2.75,0.325
	c-0.946,0-1.839-0.119-2.703-0.353c-0.856-0.227-1.614-0.595-2.271-1.101c-0.641-0.486-1.163-1.116-1.552-1.875
	c-0.387-0.765-0.567-1.676-0.567-2.73c0-1.026,0.182-1.919,0.56-2.641c0.371-0.739,0.883-1.343,1.516-1.812
	c0.64-0.469,1.387-0.821,2.254-1.047C58.352,135.424,59.279,135.308,60.253,135.308 M60.272,137.182
	c-0.73,0-1.435,0.062-2.102,0.208c-0.658,0.135-1.234,0.359-1.738,0.658c-0.496,0.316-0.895,0.722-1.183,1.244
	c-0.278,0.514-0.433,1.145-0.433,1.883c0,0.784,0.152,1.427,0.433,1.957c0.289,0.522,0.688,0.938,1.183,1.264
	c0.504,0.324,1.081,0.549,1.738,0.692c0.658,0.136,1.36,0.199,2.102,0.199c0.748,0,1.451-0.072,2.137-0.199
	c0.684-0.136,1.278-0.368,1.812-0.685c0.532-0.315,0.946-0.73,1.253-1.243c0.315-0.524,0.46-1.154,0.46-1.921
	c0-0.757-0.153-1.396-0.46-1.92c-0.314-0.522-0.729-0.945-1.253-1.261c-0.532-0.308-1.137-0.54-1.812-0.676
	C61.723,137.246,61.01,137.182,60.272,137.182"/>
<path fill="#FFFFFF" d="M64.473,114.08H53.42c0-0.036,0-0.089-0.019-0.145c0-0.035,0-0.089-0.008-0.161
	c0-0.055-0.012-0.127-0.012-0.19c0-0.117,0.02-0.252,0.056-0.387c0.026-0.145,0.089-0.271,0.181-0.377
	c0.091-0.119,0.217-0.216,0.388-0.299c0.181-0.072,0.396-0.108,0.676-0.108H67.23v1.667l-10.689,6.996H67.23v1.676H53.493
	c-0.026-0.091-0.044-0.208-0.072-0.351c-0.019-0.162-0.024-0.306-0.024-0.452c0-0.305,0.054-0.549,0.151-0.712
	c0.101-0.18,0.279-0.333,0.522-0.496L64.473,114.08z"/>
<path fill="#FFFFFF" d="M60.253,96.09c0.991,0,1.918,0.117,2.803,0.343c0.875,0.233,1.649,0.586,2.31,1.062
	c0.647,0.479,1.18,1.1,1.577,1.866c0.396,0.767,0.576,1.676,0.576,2.749c0,1.062-0.188,1.955-0.596,2.705
	c-0.396,0.748-0.938,1.359-1.595,1.831c-0.667,0.459-1.441,0.8-2.316,1.008c-0.885,0.216-1.795,0.327-2.75,0.327
	c-0.946,0-1.839-0.119-2.703-0.354c-0.856-0.225-1.614-0.584-2.271-1.081c-0.641-0.504-1.163-1.126-1.552-1.885
	c-0.387-0.765-0.567-1.676-0.567-2.729c0-1.027,0.182-1.911,0.56-2.649c0.371-0.739,0.883-1.343,1.516-1.812
	c0.64-0.471,1.387-0.821,2.254-1.047C58.36,96.208,59.279,96.09,60.253,96.09 M60.272,97.963c-0.73,0-1.435,0.062-2.102,0.209
	c-0.658,0.134-1.234,0.359-1.738,0.656c-0.496,0.309-0.895,0.722-1.183,1.244c-0.278,0.515-0.433,1.146-0.433,1.885
	c0,0.784,0.152,1.433,0.433,1.955c0.289,0.514,0.688,0.938,1.183,1.263c0.504,0.324,1.081,0.551,1.738,0.694
	c0.658,0.134,1.36,0.198,2.102,0.198c0.748,0,1.451-0.064,2.137-0.198c0.684-0.144,1.278-0.37,1.812-0.686
	c0.533-0.316,0.946-0.73,1.253-1.244c0.315-0.523,0.46-1.154,0.46-1.919c0-0.758-0.153-1.398-0.46-1.921
	c-0.308-0.532-0.729-0.946-1.253-1.263c-0.532-0.306-1.137-0.541-1.812-0.665C61.723,98.036,61.01,97.963,60.272,97.963"/>
<path fill="#FFFFFF" d="M57.233,83.145c0.569,0,1.09,0.083,1.541,0.243c0.452,0.172,0.849,0.388,1.172,0.658
	c0.325,0.279,0.596,0.596,0.821,0.965c0.216,0.361,0.377,0.749,0.468,1.162l5.958-3.767c0.081,0.134,0.125,0.297,0.153,0.468
	c0.027,0.171,0.035,0.344,0.035,0.496c0,0.631-0.271,1.118-0.803,1.459l-5.021,3.209v1.838h5.633v1.794H53.467
	c-0.062-0.495-0.126-1.026-0.153-1.595c-0.025-0.576-0.036-1.119-0.036-1.64c0-1.876,0.324-3.236,0.967-4.047
	C54.882,83.552,55.882,83.145,57.233,83.145 M57.324,85.021c-0.515,0-0.938,0.08-1.271,0.231c-0.324,0.163-0.587,0.389-0.774,0.688
	c-0.188,0.296-0.308,0.647-0.388,1.072c-0.062,0.415-0.1,0.883-0.1,1.387c0,0.333,0.008,0.622,0.019,0.875
	c0.009,0.244,0.037,0.47,0.062,0.676v-0.044h5.191v-1.487c0-0.505-0.046-0.956-0.145-1.371c-0.1-0.403-0.262-0.765-0.486-1.071
	c-0.217-0.308-0.505-0.531-0.848-0.702C58.252,85.102,57.829,85.021,57.324,85.021"/>
<path fill="#FFFFFF" d="M53.367,77.107c0-0.289,0.08-0.514,0.208-0.694c0.125-0.171,0.324-0.315,0.549-0.416l8.329-3.848
	l-8.272-3.823c-0.334-0.145-0.552-0.342-0.65-0.558c-0.098-0.225-0.161-0.442-0.161-0.667c0-0.171,0.019-0.353,0.045-0.504
	c0.026-0.171,0.054-0.299,0.08-0.388l13.711-0.965v1.668L56.37,67.662l7.696,3.66v1.739l-7.345,3.497l10.481,0.767v1.703L53.493,78
	c-0.026-0.099-0.054-0.216-0.08-0.37C53.396,77.469,53.367,77.297,53.367,77.107"/>
<path fill="#FFFFFF" d="M67.211,51.841l-3.693,1.38v5.562l3.693,1.342v1.839l-13.646-5.001c-0.036-0.1-0.081-0.242-0.117-0.441
	c-0.035-0.189-0.062-0.389-0.062-0.567c0-0.263,0.056-0.496,0.172-0.712c0.118-0.208,0.344-0.387,0.667-0.506l12.987-4.77V51.841
	L67.211,51.841z M55.478,56.005l6.569,2.326v-4.633L55.478,56.005z"/>
<path fill="#FFFFFF" d="M64.625,46.812c0.359-0.441,0.667-0.954,0.937-1.577c0.271-0.604,0.397-1.262,0.397-1.965
	c0-0.532-0.062-0.981-0.199-1.334c-0.144-0.36-0.315-0.648-0.54-0.864c-0.217-0.208-0.469-0.371-0.759-0.46
	c-0.279-0.089-0.566-0.144-0.873-0.144c-0.387,0-0.722,0.055-1.01,0.171c-0.28,0.115-0.541,0.288-0.759,0.521
	c-0.206,0.226-0.386,0.513-0.541,0.856c-0.145,0.344-0.297,0.739-0.432,1.172c-0.152,0.506-0.324,0.991-0.515,1.47
	c-0.196,0.468-0.44,0.883-0.721,1.244c-0.289,0.368-0.648,0.659-1.073,0.875c-0.422,0.216-0.963,0.332-1.584,0.332
	c-0.623,0-1.163-0.107-1.634-0.341c-0.477-0.216-0.874-0.531-1.188-0.91c-0.308-0.388-0.551-0.848-0.714-1.388
	c-0.17-0.533-0.252-1.128-0.252-1.749c0-0.515,0.062-1.056,0.189-1.643c0.135-0.576,0.324-1.072,0.567-1.496
	c0.136-0.216,0.288-0.405,0.441-0.559c0.153-0.145,0.343-0.226,0.542-0.226c0.17,0,0.341,0.072,0.54,0.197
	c0.188,0.127,0.388,0.298,0.567,0.487c-0.1,0.108-0.217,0.263-0.379,0.451c-0.145,0.199-0.28,0.423-0.415,0.704
	c-0.125,0.278-0.233,0.586-0.342,0.945c-0.091,0.351-0.146,0.729-0.146,1.145c0,0.479,0.055,0.884,0.171,1.208
	c0.125,0.324,0.271,0.578,0.461,0.774c0.18,0.199,0.396,0.344,0.647,0.435c0.252,0.089,0.515,0.134,0.767,0.134
	c0.353,0,0.642-0.061,0.894-0.197c0.243-0.144,0.459-0.334,0.641-0.595c0.188-0.252,0.352-0.567,0.515-0.947
	c0.146-0.37,0.297-0.792,0.448-1.278c0.154-0.479,0.335-0.938,0.542-1.361c0.217-0.432,0.478-0.812,0.792-1.145
	c0.316-0.335,0.695-0.595,1.127-0.795c0.433-0.205,0.955-0.296,1.551-0.296c0.694,0,1.298,0.109,1.82,0.333
	c0.514,0.217,0.956,0.542,1.316,0.947c0.359,0.406,0.631,0.903,0.811,1.47c0.181,0.576,0.262,1.19,0.262,1.883
	c0,0.759-0.081,1.462-0.243,2.118c-0.171,0.649-0.387,1.163-0.657,1.542c-0.235,0.332-0.487,0.515-0.768,0.515
	c-0.162,0-0.353-0.063-0.576-0.19C65.049,47.118,64.824,46.974,64.625,46.812"/>
<g>
	<g>
		<g>
			<g>
				<g>
					<defs>
						<path id="SVGID_4_" d="M422.363,275.062c228.691-32.396,368.23-5.381,400.476,31.528c0,0-44.823-160.326-401.81-94.938
							c-228.683,32.385-368.229,5.381-400.472-31.529C20.558,180.123,65.392,340.447,422.363,275.062"/>
					</defs>
					<clipPath id="SVGID_5_">
						<use xlink:href="#SVGID_4_"  overflow="visible"/>
					</clipPath>
					<path clip-path="url(#SVGID_5_)" fill="#FFFFFF" d="M421.164,253.25c-77.888,13.226-159.862,23.398-239.507,14.396
						c-66.755-7.543-150.364-31.258-188.312-95.002c23.236,31.539,58.85,50.08,94.993,61.555
						c42.581,13.527,87.288,18.353,131.273,19.441c47.275,1.182,94.453-2.236,141.054-8.214
						c46.859-6.021,93.048-15.385,140.171-20.071c65.237-6.479,132.543-7.429,197.898,5.392
						c55.74,10.942,120.358,33.271,151.652,85.847c-42.632-57.888-123.358-73.552-188.878-79.016
						C580.875,230.859,499.789,239.396,421.164,253.25C398.715,257.062,444.655,249.111,421.164,253.25"/>
				</g>
			</g>
		</g>
	</g>
</g>
<text transform="matrix(1 0 0 1 17.6975 389.5144)" fill="#FFFFFF" font-family="'Foco-Regular'" font-size="68.4528">El Agua pura de nuestro país</text>
</svg>
